name rise45.9887peak57.8056fall74.9286.mot
datacolumns 19
datarows 21
range 18.58326200000000 18.61659900000000
endheader
time	ground_force1_vx	ground_force1_vy	ground_force1_vz	ground_force1_px	ground_force1_py	ground_force1_pz	ground_force2_vx	ground_force2_vy	ground_force2_vz	ground_force2_px	ground_force2_py	ground_force2_pz	ground_torque1_x	ground_torque1_y	ground_torque1_z	ground_torque2_x	ground_torque2_y	ground_torque2_z	
18.58326200000000	8.68444800000000	698.75908900000002	43.46340300000000	0.20055300000000	0.00000000000000	0.12158700000000	0.00000000000000	0.00000000000000	0.00000000000000	0.00000000000000	0.00000000000000	0.00000000000000	0.00000000000000	15.06737600000000	0.00000000000000	0.00000000000000	0.00000000000000	0.00000000000000	
18.58492700000000	8.15713800000000	700.35689500000001	43.54763000000000	0.19961000000000	0.00000000000000	0.12157700000000	0.00000000000000	0.00000000000000	0.00000000000000	0.00000000000000	0.00000000000000	0.00000000000000	0.00000000000000	15.17994300000000	0.00000000000000	0.00000000000000	0.00000000000000	0.00000000000000	
18.58660000000000	7.61550400000000	701.99436600000001	43.63877300000000	0.19863300000000	0.00000000000000	0.12156900000000	0.00000000000000	0.00000000000000	0.00000000000000	0.00000000000000	0.00000000000000	0.00000000000000	0.00000000000000	15.29694100000000	0.00000000000000	0.00000000000000	0.00000000000000	0.00000000000000	
18.58826200000000	7.05969500000000	703.66874399999995	43.73650700000000	0.19762300000000	0.00000000000000	0.12156300000000	0.00000000000000	0.00000000000000	0.00000000000000	0.00000000000000	0.00000000000000	0.00000000000000	0.00000000000000	15.41818500000000	0.00000000000000	0.00000000000000	0.00000000000000	0.00000000000000	
18.58992800000000	6.48992800000000	705.37729800000000	43.84050600000000	0.19658200000000	0.00000000000000	0.12156100000000	0.00000000000000	0.00000000000000	0.00000000000000	0.00000000000000	0.00000000000000	0.00000000000000	0.00000000000000	15.54348600000000	0.00000000000000	0.00000000000000	0.00000000000000	0.00000000000000	
18.59160600000000	5.90647900000000	707.11733600000002	43.95044500000000	0.19551000000000	0.00000000000000	0.12156000000000	0.00000000000000	0.00000000000000	0.00000000000000	0.00000000000000	0.00000000000000	0.00000000000000	0.00000000000000	15.67265300000000	0.00000000000000	0.00000000000000	0.00000000000000	0.00000000000000	
18.59326200000000	5.30968900000000	708.88620600000002	44.06600400000000	0.19441000000000	0.00000000000000	0.12156200000000	0.00000000000000	0.00000000000000	0.00000000000000	0.00000000000000	0.00000000000000	0.00000000000000	0.00000000000000	15.80549800000000	0.00000000000000	0.00000000000000	0.00000000000000	0.00000000000000	
18.59492700000000	4.69995400000000	710.68130499999995	44.18686500000000	0.19328200000000	0.00000000000000	0.12156700000000	0.00000000000000	0.00000000000000	0.00000000000000	0.00000000000000	0.00000000000000	0.00000000000000	0.00000000000000	15.94183000000000	0.00000000000000	0.00000000000000	0.00000000000000	0.00000000000000	
18.59659500000000	4.07772900000000	712.50008300000002	44.31271400000000	0.19212900000000	0.00000000000000	0.12157300000000	0.00000000000000	0.00000000000000	0.00000000000000	0.00000000000000	0.00000000000000	0.00000000000000	0.00000000000000	16.08145800000000	0.00000000000000	0.00000000000000	0.00000000000000	0.00000000000000	
18.59826700000000	3.44352000000000	714.34004900000002	44.44324200000000	0.19095200000000	0.00000000000000	0.12158100000000	0.00000000000000	0.00000000000000	0.00000000000000	0.00000000000000	0.00000000000000	0.00000000000000	0.00000000000000	16.22419300000000	0.00000000000000	0.00000000000000	0.00000000000000	0.00000000000000	
18.59992800000000	2.79788700000000	716.19877199999996	44.57814600000000	0.18975400000000	0.00000000000000	0.12159000000000	0.00000000000000	0.00000000000000	0.00000000000000	0.00000000000000	0.00000000000000	0.00000000000000	0.00000000000000	16.36984300000000	0.00000000000000	0.00000000000000	0.00000000000000	0.00000000000000	
18.60159800000000	2.14143400000000	718.07389000000001	44.71712800000000	0.18853700000000	0.00000000000000	0.12160200000000	0.00000000000000	0.00000000000000	0.00000000000000	0.00000000000000	0.00000000000000	0.00000000000000	0.00000000000000	16.51822100000000	0.00000000000000	0.00000000000000	0.00000000000000	0.00000000000000	
18.60326600000000	1.47481100000000	719.96310700000004	44.85989800000000	0.18730300000000	0.00000000000000	0.12161400000000	0.00000000000000	0.00000000000000	0.00000000000000	0.00000000000000	0.00000000000000	0.00000000000000	0.00000000000000	16.66913500000000	0.00000000000000	0.00000000000000	0.00000000000000	0.00000000000000	
18.60493200000000	0.79870700000000	721.86420399999997	45.00617200000000	0.18605400000000	0.00000000000000	0.12162800000000	0.00000000000000	0.00000000000000	0.00000000000000	0.00000000000000	0.00000000000000	0.00000000000000	0.00000000000000	16.82239900000000	0.00000000000000	0.00000000000000	0.00000000000000	0.00000000000000	
18.60659300000000	0.11384700000000	723.77503300000001	45.15567500000000	0.18479400000000	0.00000000000000	0.12164300000000	0.00000000000000	0.00000000000000	0.00000000000000	0.00000000000000	0.00000000000000	0.00000000000000	0.00000000000000	16.97782400000000	0.00000000000000	0.00000000000000	0.00000000000000	0.00000000000000	
18.60826500000000	-0.57901000000000	725.69352400000002	45.30814000000000	0.18352400000000	0.00000000000000	0.12165800000000	0.00000000000000	0.00000000000000	0.00000000000000	0.00000000000000	0.00000000000000	0.00000000000000	0.00000000000000	17.13522300000000	0.00000000000000	0.00000000000000	0.00000000000000	0.00000000000000	
18.60993500000000	-1.27907800000000	727.61768600000005	45.46331100000000	0.18224600000000	0.00000000000000	0.12167400000000	0.00000000000000	0.00000000000000	0.00000000000000	0.00000000000000	0.00000000000000	0.00000000000000	0.00000000000000	17.29441300000000	0.00000000000000	0.00000000000000	0.00000000000000	0.00000000000000	
18.61160100000000	-1.98554500000000	729.54560700000002	45.62093900000000	0.18096400000000	0.00000000000000	0.12169100000000	0.00000000000000	0.00000000000000	0.00000000000000	0.00000000000000	0.00000000000000	0.00000000000000	0.00000000000000	17.45520700000000	0.00000000000000	0.00000000000000	0.00000000000000	0.00000000000000	
18.61326200000000	-2.69758000000000	731.47545300000002	45.78078800000000	0.17968000000000	0.00000000000000	0.12170800000000	0.00000000000000	0.00000000000000	0.00000000000000	0.00000000000000	0.00000000000000	0.00000000000000	0.00000000000000	17.61742200000000	0.00000000000000	0.00000000000000	0.00000000000000	0.00000000000000	
18.61493100000000	-3.41433800000000	733.40547300000003	45.94263100000000	0.17839500000000	0.00000000000000	0.12172500000000	0.00000000000000	0.00000000000000	0.00000000000000	0.00000000000000	0.00000000000000	0.00000000000000	0.00000000000000	17.78087700000000	0.00000000000000	0.00000000000000	0.00000000000000	0.00000000000000	
18.61659900000000	-4.13495900000000	735.33399099999997	46.10625500000000	0.17711400000000	0.00000000000000	0.12174200000000	0.00000000000000	0.00000000000000	0.00000000000000	0.00000000000000	0.00000000000000	0.00000000000000	0.00000000000000	17.94539100000000	0.00000000000000	0.00000000000000	0.00000000000000	0.00000000000000	
